<svg width="72" height="72" viewBox="0 0 72 72" fill="none" xmlns="http://www.w3.org/2000/svg">
<path fill-rule="evenodd" clip-rule="evenodd" d="M12 0C5.37258 0 0 5.37258 0 12V60C0 66.6274 5.37258 72 12 72H60C66.6274 72 72 66.6274 72 60V12C72 5.37258 66.6274 0 60 0H12ZM34.0035 18.65C38.6235 18.65 43.0335 20.82 44.9935 24.25L45.2735 19.49H53.4635V54H45.4135L44.9935 48.96C43.0335 53.02 37.6435 54.98 33.7935 55.05C23.5735 55.12 16.0135 48.82 16.0135 36.71C16.0135 24.81 23.9235 18.58 34.0035 18.65ZM34.7735 47.21C48.2135 47.21 48.2135 26.28 34.7735 26.28C29.1035 26.28 24.5535 30.13 24.5535 36.71C24.5535 43.29 29.1035 47.21 34.7735 47.21Z" fill="white"/>
</svg>
