<svg width="238" height="40" viewBox="0 0 238 40" fill="none" xmlns="http://www.w3.org/2000/svg">
<path d="M17.0917 13C15.9717 11.04 13.4517 9.8 10.8117 9.8C5.05172 9.76 0.531719 13.32 0.531719 20.12C0.531719 27.04 4.85172 30.64 10.6917 30.6C12.8917 30.56 15.9717 29.44 17.0917 27.12L17.3317 30H21.9317V10.28H17.2517L17.0917 13ZM11.2517 14.16C18.9317 14.16 18.9317 26.12 11.2517 26.12C8.01172 26.12 5.41172 23.88 5.41172 20.12C5.41172 16.36 8.01172 14.16 11.2517 14.16ZM36.9848 25.76C33.6648 25.76 31.3848 23.24 31.3848 20.16C31.3848 17.08 33.4648 14.56 36.9848 14.56C40.5048 14.56 42.5848 17.08 42.5848 20.16C42.5848 23.24 40.3048 25.76 36.9848 25.76ZM30.9448 38.24V27.68C32.3448 29.84 35.4248 30.48 37.5048 30.48C43.8248 30.48 47.4648 25.92 47.4648 20.16C47.4648 14.36 43.4248 9.84 37.3448 9.84C35.1048 9.84 32.4648 10.8 30.9448 13L30.6248 10.28H26.0648V38.24H30.9448ZM61.9848 25.76C58.6648 25.76 56.3848 23.24 56.3848 20.16C56.3848 17.08 58.4648 14.56 61.9848 14.56C65.5048 14.56 67.5848 17.08 67.5848 20.16C67.5848 23.24 65.3048 25.76 61.9848 25.76ZM55.9448 38.24V27.68C57.3448 29.84 60.4248 30.48 62.5048 30.48C68.8248 30.48 72.4648 25.92 72.4648 20.16C72.4648 14.36 68.4248 9.84 62.3448 9.84C60.1048 9.84 57.4648 10.8 55.9448 13L55.6248 10.28H51.0648V38.24H55.9448ZM76.0648 2V30H80.9448V19.92C80.9448 16.96 82.9448 14.52 85.8248 14.52C88.4248 14.52 90.3048 16.04 90.3048 19.64V30H95.1848V19.6C95.1848 13.8 92.7048 10 87.1048 10C84.8648 10 82.7048 10.68 80.9448 12.96V2H76.0648ZM99.0364 10.28V20.64C99.0364 26.76 102.476 30.32 107.196 30.32C109.956 30.32 111.836 29.36 113.876 27.36L114.196 30.04H118.556V10.28H113.716V20.36C113.716 23.36 111.676 25.88 108.676 25.88C105.556 25.88 103.916 23.6 103.916 20.6V10.28H99.0364ZM132.422 14.36C135.502 14.36 138.142 16.68 138.142 20.12C138.142 23.68 135.502 25.92 132.422 25.92C129.302 25.92 126.822 23.56 126.822 20.12C126.822 16.56 129.302 14.36 132.422 14.36ZM138.462 2.04V12.96C137.302 10.92 134.062 9.8 131.982 9.8C126.222 9.8 121.942 13.32 121.942 20.12C121.942 26.6 126.302 30.44 132.102 30.44C134.502 30.44 136.942 29.64 138.462 27.28L138.782 30H143.342V2.04H138.462Z" fill="white"/>
<path d="M162.16 14.36C165.24 14.36 167.88 16.68 167.88 20.12C167.88 23.68 165.24 25.92 162.16 25.92C159.04 25.92 156.56 23.56 156.56 20.12C156.56 16.56 159.04 14.36 162.16 14.36ZM168.2 2.04V12.96C167.04 10.92 163.8 9.8 161.72 9.8C155.96 9.8 151.68 13.32 151.68 20.12C151.68 26.6 156.04 30.44 161.84 30.44C164.24 30.44 166.68 29.64 168.2 27.28L168.52 30H173.08V2.04H168.2ZM186.607 9.88C180.327 9.88 176.407 14.52 176.407 20.16C176.407 25.84 180.247 30.44 186.647 30.44C193.047 30.44 196.927 25.84 196.927 20.16C196.927 14.52 192.887 9.88 186.607 9.88ZM186.647 14.32C189.927 14.32 192.007 17.2 192.007 20.16C192.007 23.16 190.207 25.96 186.647 25.96C183.087 25.96 181.287 23.16 181.287 20.16C181.287 17.2 183.127 14.32 186.647 14.32ZM213.935 24.28C212.735 25.48 211.175 25.92 209.615 25.92C206.575 25.92 204.015 23.92 204.015 20.16C204.015 16.72 206.415 14.32 209.695 14.32C211.055 14.32 212.495 14.84 213.655 15.88L216.735 12.64C214.575 10.52 212.415 9.72 209.615 9.72C203.895 9.72 199.135 13.16 199.135 20.16C199.135 27.16 203.895 30.6 209.615 30.6C212.535 30.6 214.935 29.72 217.215 27.48L213.935 24.28ZM234.958 12.32C232.678 10.32 230.358 9.72 227.278 9.72C223.678 9.72 218.958 11.32 218.958 15.88C218.958 20.36 223.398 21.72 227.118 22C229.918 22.16 231.038 22.72 231.038 24.08C231.038 25.52 229.318 26.48 227.478 26.44C225.278 26.4 222.078 25.24 220.678 23.68L218.278 27.16C221.158 30.16 224.278 30.68 227.398 30.68C233.038 30.68 235.878 27.68 235.878 24.2C235.878 18.96 231.158 18.12 227.438 17.88C224.918 17.72 223.758 17 223.758 15.72C223.758 14.48 225.038 13.76 227.358 13.76C229.238 13.76 230.838 14.2 232.238 15.52L234.958 12.32Z" fill="#1A344B"/>
</svg>
