<svg width="152" height="152" viewBox="0 0 152 152" fill="none" xmlns="http://www.w3.org/2000/svg">
<g clip-path="url(#clip0)">
<mask id="mask0" mask-type="alpha" maskUnits="userSpaceOnUse" x="0" y="78" width="72" height="72">
<circle cx="36" cy="114" r="36" fill="black"/>
</mask>
<g mask="url(#mask0)">
<path d="M36 150C55.8823 150 72 133.882 72 114C72 94.1178 55.8823 78 36 78C16.1178 78 0 94.1178 0 114C0 133.882 16.1178 150 36 150Z" fill="#1E96C8"/>
<path d="M29.4 130.5C28.2337 130.5 28.4319 130.06 28.0297 128.949L24.6 117.662L51 102" fill="#C8DAEA"/>
<path d="M29.4 130.5C30.3 130.5 30.6976 130.088 31.2 129.6L36 124.933L30.0126 121.322" fill="#A9C9DD"/>
<path d="M30.012 121.323L44.52 132.042C46.1755 132.955 47.3704 132.482 47.7828 130.505L53.6883 102.676C54.2929 100.252 52.7643 99.1522 51.1805 99.8713L16.5035 113.243C14.1365 114.192 14.1503 115.513 16.072 116.101L24.9709 118.878L45.5728 105.881C46.5454 105.291 47.438 105.608 46.7054 106.258" fill="url(#paint0_linear)"/>
</g>
<mask id="mask1" mask-type="alpha" maskUnits="userSpaceOnUse" x="80" y="78" width="72" height="72">
<circle cx="116" cy="114" r="36" fill="black"/>
</mask>
<g mask="url(#mask1)">
<circle cx="116" cy="114" r="36" fill="#4A154B"/>
<path d="M102.085 120.332C102.085 123.107 99.8176 125.375 97.0423 125.375C94.2671 125.375 92 123.107 92 120.332C92 117.557 94.2671 115.29 97.0423 115.29H102.085V120.332Z" fill="#E01E5A"/>
<path d="M104.625 120.332C104.625 117.557 106.893 115.29 109.668 115.29C112.443 115.29 114.71 117.557 114.71 120.332V132.958C114.71 135.733 112.443 138 109.668 138C106.893 138 104.625 135.733 104.625 132.958V120.332Z" fill="#E01E5A"/>
<path d="M109.668 100.085C106.893 100.085 104.625 97.8176 104.625 95.0423C104.625 92.2671 106.893 90 109.668 90C112.443 90 114.71 92.2671 114.71 95.0423V100.085H109.668Z" fill="#36C5F0"/>
<path d="M109.668 102.625C112.443 102.625 114.71 104.893 114.71 107.668C114.71 110.443 112.443 112.71 109.668 112.71H97.0423C94.2671 112.71 92 110.443 92 107.668C92 104.893 94.2671 102.625 97.0423 102.625H109.668Z" fill="#36C5F0"/>
<path d="M129.915 107.668C129.915 104.893 132.182 102.625 134.958 102.625C137.733 102.625 140 104.893 140 107.668C140 110.443 137.733 112.71 134.958 112.71H129.915V107.668Z" fill="#2EB67D"/>
<path d="M127.375 107.668C127.375 110.443 125.107 112.71 122.332 112.71C119.557 112.71 117.29 110.443 117.29 107.668V95.0423C117.29 92.2671 119.557 90 122.332 90C125.107 90 127.375 92.2671 127.375 95.0423V107.668Z" fill="#2EB67D"/>
<path d="M122.332 127.915C125.107 127.915 127.375 130.182 127.375 132.958C127.375 135.733 125.107 138 122.332 138C119.557 138 117.29 135.733 117.29 132.958V127.915H122.332Z" fill="#ECB22E"/>
<path d="M122.332 125.375C119.557 125.375 117.29 123.107 117.29 120.332C117.29 117.557 119.557 115.29 122.332 115.29H134.958C137.733 115.29 140 117.557 140 120.332C140 123.107 137.733 125.375 134.958 125.375H122.332Z" fill="#ECB22E"/>
</g>
<mask id="mask2" mask-type="alpha" maskUnits="userSpaceOnUse" x="40" y="2" width="72" height="72">
<circle cx="76" cy="38" r="36" fill="#007FD2"/>
</mask>
<g mask="url(#mask2)">
<path d="M70.5764 73.7334C55.0058 71.1997 43.0785 59.5056 40.4328 44.195C39.9557 41.3364 39.8472 35.8575 40.2376 33.1289C41.3869 25.008 44.9001 18.0565 50.7987 12.2961C61.8803 1.42488 78.622 -1.10884 92.5444 5.99424C95.6889 7.59677 98.2045 9.41585 101.024 12.1228C106.358 17.2336 109.611 22.994 111.281 30.2054C111.78 32.4359 111.888 33.4104 111.975 37.1352C112.04 40.86 111.997 41.8562 111.607 44.1517C109.113 58.7476 97.9877 70.2685 83.2845 73.4086C80.4653 74.0149 73.4173 74.2098 70.5764 73.7334ZM90.8746 60.0037C92.6312 59.1808 94.3444 56.7986 95.5371 53.5286C95.9058 52.4891 96.7515 49.6089 97.4021 47.1185C98.5949 42.5491 98.6166 42.0077 97.7925 42.0077C97.3804 42.0077 97.207 42.3976 95.6672 46.7287C92.8481 54.5897 92.1107 55.8458 90.1807 55.8674C88.359 55.8891 86.5374 51.7961 84.3688 42.7874C83.9568 41.0765 83.6098 39.5173 83.6098 39.3224C83.6098 39.0193 84.4989 38.9759 92.5011 38.9759H101.414L101.935 38.4345C103.041 37.3518 102.412 35.8142 100.742 35.511C100.2 35.4027 96.8817 35.2078 93.3685 35.0779C89.8554 34.948 85.9085 34.7747 84.629 34.6881L82.2652 34.5365L81.1159 30.5302C79.5328 25.008 78.6003 22.4526 76.9738 19.1176C74.2631 13.5738 71.7909 12.0795 68.7114 14.1368C67.2151 15.1546 65.7621 17.082 64.2875 20.0272C63.008 22.6692 60.8827 28.6895 59.9502 32.4576L59.4298 34.4932L55.5697 34.3416C52.2083 34.2117 51.6011 34.255 50.9505 34.5582C49.3891 35.2945 49.1506 37.3301 50.4517 38.4129C51.1023 38.9759 51.1674 38.9759 54.7022 38.9759H58.2804L58.1937 39.5823C58.1286 39.9071 57.7166 42.1377 57.2612 44.5415C56.5022 48.6127 56.4588 48.9592 56.7841 49.4357C57.2829 50.1936 58.172 50.3669 58.8659 49.8471C59.3213 49.5223 59.7117 48.5261 61.0345 44.2166L62.661 38.9759H70.5981H78.5352L79.5978 42.8307C81.658 50.4318 83.9351 56.3655 85.5398 58.3578C87.1446 60.3285 88.9662 60.8916 90.8746 60.0037Z" fill="#007FD2"/>
<path d="M67.9524 34.4932L63.7019 34.4282L64.2224 32.4142C66.391 24.38 69.5138 17.7533 71.1186 17.7533C72.1161 17.7533 73.786 21.8246 76.1281 29.9455C76.7787 32.2626 77.3208 34.255 77.3208 34.3849C77.3208 34.5798 76.5835 34.6231 74.7835 34.6015C73.3739 34.5582 70.2945 34.5148 67.9524 34.4932Z" fill="#007FD2"/>
</g>
</g>
<defs>
<linearGradient id="paint0_linear" x1="40.5014" y1="114" x2="46.1351" y2="126.82" gradientUnits="userSpaceOnUse">
<stop stop-color="#EFF7FC"/>
<stop offset="1" stop-color="white"/>
</linearGradient>
<clipPath id="clip0">
<rect width="152" height="152" fill="white"/>
</clipPath>
</defs>
</svg>
