<svg width="152" height="152" viewBox="0 0 152 152" fill="none" xmlns="http://www.w3.org/2000/svg">
<path d="M42.334 120.364C50.104 126.592 59.608 130.72 70 131.86V119.74C62.902 118.72 56.386 115.924 50.89 111.814L42.334 120.364Z" fill="#0065C1"/>
<path d="M34.1921 82H22.1921C22.9781 93.256 27.1961 103.57 33.8501 111.88L42.4061 103.318C37.8641 97.264 34.9061 89.968 34.1921 82Z" fill="#1A344B"/>
<path d="M44.494 50.44L35.506 42.502C28.624 50.29 24.238 59.848 22.672 70H34.834C36.274 62.794 39.568 56.026 44.494 50.44Z" fill="#1A344B"/>
<path d="M103.162 31.618L118 16H76V60.22L94.612 40.624C108.448 47.5 118 61.75 118 78.22C118 99.34 102.322 116.812 82 119.74V131.86C108.958 128.86 130 105.958 130 78.214C130 58.354 119.182 41.002 103.162 31.618Z" fill="#0085FF"/>
</svg>
