<svg width="152" height="152" viewBox="0 0 152 152" fill="none" xmlns="http://www.w3.org/2000/svg">
<path d="M112.001 88.006C107.561 88.006 103.445 89.296 99.8755 91.402L88.7275 80.242L80.2435 88.732L91.3975 99.88C89.2915 103.456 88.0015 107.56 88.0015 112.006C88.0015 125.248 98.7475 136.006 112.001 136.006C116.441 136.006 120.551 134.722 124.121 132.61L107.759 116.248L116.243 107.764L132.605 124.12C134.711 120.55 136.001 116.44 136.001 112.006C136.001 98.746 125.255 88.006 112.001 88.006Z" fill="#1A344B"/>
<path d="M40.0015 64.006C44.4415 64.006 48.5515 62.722 52.1155 60.61L63.2695 71.764L71.7535 63.28L60.6055 52.12C62.7115 48.55 64.0015 44.446 64.0015 40C64.0015 26.74 53.2555 16 40.0015 16C35.5615 16.006 31.4455 17.29 27.8815 19.402L44.2435 35.764L35.7595 44.242L19.3975 27.88C17.2915 31.456 16.0015 35.56 16.0015 40C16.0015 53.242 26.7475 64.006 40.0015 64.006Z" fill="#1A344B"/>
<path d="M66.4855 94.006L113.244 47.248L118.001 52L136.001 28L124.001 16L100.001 34L104.759 38.758L58.0015 85.522L44.2435 71.764L35.7595 80.248L43.5175 88.006L17.7595 113.764C15.4135 116.11 15.4135 119.902 17.7595 122.248L29.7595 134.248C32.1055 136.594 35.8975 136.594 38.2435 134.248L64.0015 108.49L71.7595 116.242L80.2435 107.758L66.4855 94.006Z" fill="#0085FF"/>
</svg>
