<svg width="152" height="152" viewBox="0 0 152 152" fill="none" xmlns="http://www.w3.org/2000/svg">
<path d="M136 16C134.476 14.476 132.256 13.888 130.18 14.458C114.334 18.778 110.824 19.354 101.476 23.77L128.224 50.524C132.622 41.212 133.204 37.726 137.542 21.826C138.112 19.744 137.518 17.524 136 16Z" fill="#0085FF"/>
<path d="M77.8658 40.192L34.2458 83.818L68.1878 117.754L111.814 74.14C115.708 70.24 119.05 65.89 122.086 61.354L90.6518 29.92C86.1098 32.962 81.7598 36.298 77.8658 40.192Z" fill="#0085FF"/>
<path d="M25.7559 100.786C18.7299 107.818 17.2719 134.728 17.2719 134.728C17.2719 134.728 44.1819 133.27 51.2139 126.238C54.4899 122.968 56.1759 118.738 56.3979 114.454L37.5399 95.608C33.2559 95.83 29.0319 97.51 25.7559 100.786Z" fill="#1A344B"/>
<path d="M53.3919 58.366H25.7559L17.2719 66.85L31.0899 80.662L53.3919 58.366Z" fill="#0085FF"/>
<path d="M85.1498 134.728L93.6398 126.244V98.728L71.3978 120.97L85.1498 134.728Z" fill="#0085FF"/>
</svg>
