<svg width="72" height="72" viewBox="0 0 72 72" fill="none" xmlns="http://www.w3.org/2000/svg"><path fill-rule="evenodd" clip-rule="evenodd" d="M12 0C5.373 0 0 5.373 0 12v48c0 6.627 5.373 12 12 12h48c6.627 0 12-5.373 12-12V12c0-6.627-5.373-12-12-12H12zm22.004 18.65c4.62 0 9.03 2.17 10.99 5.6l.28-4.76h8.19V54h-8.05l-.42-5.04c-1.96 4.06-7.35 6.02-11.2 6.09-10.22.07-17.78-6.23-17.78-18.34 0-11.9 7.91-18.13 17.99-18.06zm.77 28.56c13.44 0 13.44-20.93 0-20.93-5.67 0-10.22 3.85-10.22 10.43s4.55 10.5 10.22 10.5z" fill="#fff"/></svg>