<svg width="238" height="40" viewBox="0 0 238 40" fill="none" xmlns="http://www.w3.org/2000/svg"><path d="M17.092 13c-1.12-1.96-3.64-3.2-6.28-3.2C5.052 9.76.532 13.32.532 20.12c0 6.92 4.32 10.52 10.16 10.48 2.2-.04 5.28-1.16 6.4-3.48l.24 2.88h4.6V10.28h-4.68l-.16 2.72zm-5.84 1.16c7.68 0 7.68 11.96 0 11.96-3.24 0-5.84-2.24-5.84-6s2.6-5.96 5.84-5.96zm25.733 11.6c-3.32 0-5.6-2.52-5.6-5.6 0-3.08 2.08-5.6 5.6-5.6 3.52 0 5.6 2.52 5.6 5.6 0 3.08-2.28 5.6-5.6 5.6zm-6.04 12.48V27.68c1.4 2.16 4.48 2.8 6.56 2.8 6.32 0 9.96-4.56 9.96-10.32 0-5.8-4.04-10.32-10.12-10.32-2.24 0-4.88.96-6.4 3.16l-.32-2.72h-4.56v27.96h4.88zm31.04-12.48c-3.32 0-5.6-2.52-5.6-5.6 0-3.08 2.08-5.6 5.6-5.6 3.52 0 5.6 2.52 5.6 5.6 0 3.08-2.28 5.6-5.6 5.6zm-6.04 12.48V27.68c1.4 2.16 4.48 2.8 6.56 2.8 6.32 0 9.96-4.56 9.96-10.32 0-5.8-4.04-10.32-10.12-10.32-2.24 0-4.88.96-6.4 3.16l-.32-2.72h-4.56v27.96h4.88zM76.065 2v28h4.88V19.92c0-2.96 2-5.4 4.88-5.4 2.6 0 4.48 1.52 4.48 5.12V30h4.88V19.6c0-5.8-2.48-9.6-8.08-9.6-2.24 0-4.4.68-6.16 2.96V2h-4.88zm22.971 8.28v10.36c0 6.12 3.44 9.68 8.16 9.68 2.76 0 4.64-.96 6.68-2.96l.32 2.68h4.36V10.28h-4.84v10.08c0 3-2.04 5.52-5.04 5.52-3.12 0-4.76-2.28-4.76-5.28V10.28h-4.88zm33.386 4.08c3.08 0 5.72 2.32 5.72 5.76 0 3.56-2.64 5.8-5.72 5.8-3.12 0-5.6-2.36-5.6-5.8 0-3.56 2.48-5.76 5.6-5.76zm6.04-12.32v10.92c-1.16-2.04-4.4-3.16-6.48-3.16-5.76 0-10.04 3.52-10.04 10.32 0 6.48 4.36 10.32 10.16 10.32 2.4 0 4.84-.8 6.36-3.16l.32 2.72h4.56V2.04h-4.88z" fill="#fff"/><path d="M162.16 14.36c3.08 0 5.72 2.32 5.72 5.76 0 3.56-2.64 5.8-5.72 5.8-3.12 0-5.6-2.36-5.6-5.8 0-3.56 2.48-5.76 5.6-5.76zm6.04-12.32v10.92c-1.16-2.04-4.4-3.16-6.48-3.16-5.76 0-10.04 3.52-10.04 10.32 0 6.48 4.36 10.32 10.16 10.32 2.4 0 4.84-.8 6.36-3.16l.32 2.72h4.56V2.04h-4.88zm18.407 7.84c-6.28 0-10.2 4.64-10.2 10.28 0 5.68 3.84 10.28 10.24 10.28s10.28-4.6 10.28-10.28c0-5.64-4.04-10.28-10.32-10.28zm.04 4.44c3.28 0 5.36 2.88 5.36 5.84 0 3-1.8 5.8-5.36 5.8-3.56 0-5.36-2.8-5.36-5.8 0-2.96 1.84-5.84 5.36-5.84zm27.288 9.96c-1.2 1.2-2.76 1.64-4.32 1.64-3.04 0-5.6-2-5.6-5.76 0-3.44 2.4-5.84 5.68-5.84 1.36 0 2.8.52 3.96 1.56l3.08-3.24c-2.16-2.12-4.32-2.92-7.12-2.92-5.72 0-10.48 3.44-10.48 10.44s4.76 10.44 10.48 10.44c2.92 0 5.32-.88 7.6-3.12l-3.28-3.2zm21.023-11.96c-2.28-2-4.6-2.6-7.68-2.6-3.6 0-8.32 1.6-8.32 6.16 0 4.48 4.44 5.84 8.16 6.12 2.8.16 3.92.72 3.92 2.08 0 1.44-1.72 2.4-3.56 2.36-2.2-.04-5.4-1.2-6.8-2.76l-2.4 3.48c2.88 3 6 3.52 9.12 3.52 5.64 0 8.48-3 8.48-6.48 0-5.24-4.72-6.08-8.44-6.32-2.52-.16-3.68-.88-3.68-2.16 0-1.24 1.28-1.96 3.6-1.96 1.88 0 3.48.44 4.88 1.76l2.72-3.2z" fill="#1A344B"/></svg>