<svg width="152" height="152" viewBox="0 0 152 152" fill="none" xmlns="http://www.w3.org/2000/svg"><path d="M42.334 120.364c7.77 6.228 17.274 10.356 27.666 11.496v-12.12a41.785 41.785 0 0 1-19.11-7.926l-8.556 8.55z" fill="#0065C1"/><path d="M34.192 82h-12a53.668 53.668 0 0 0 11.658 29.88l8.556-8.562c-4.542-6.054-7.5-13.35-8.214-21.318zm10.302-31.56l-8.988-7.938C28.624 50.29 24.238 59.848 22.672 70h12.162c1.44-7.206 4.734-13.974 9.66-19.56z" fill="#1A344B"/><path d="M103.162 31.618L118 16H76v44.22l18.612-19.596C108.448 47.5 118 61.75 118 78.22c0 21.12-15.678 38.592-36 41.52v12.12c26.958-3 48-25.902 48-53.646 0-19.86-10.818-37.212-26.838-46.596z" fill="#0085FF"/></svg>