<svg width="152" height="152" viewBox="0 0 152 152" fill="none" xmlns="http://www.w3.org/2000/svg"><path d="M112.001 88.006c-4.44 0-8.556 1.29-12.126 3.396l-11.147-11.16-8.484 8.49L91.397 99.88c-2.106 3.576-3.396 7.68-3.396 12.126 0 13.242 10.746 24 24 24 4.44 0 8.55-1.284 12.12-3.396l-16.362-16.362 8.484-8.484 16.362 16.356c2.106-3.57 3.396-7.68 3.396-12.114 0-13.26-10.746-24-24-24zm-71.999-24c4.44 0 8.55-1.284 12.113-3.396L63.27 71.764l8.485-8.484-11.149-11.16c2.107-3.57 3.396-7.674 3.396-12.12 0-13.26-10.746-24-24-24-4.44.006-8.555 1.29-12.12 3.402l16.362 16.362-8.483 8.478L19.398 27.88c-2.107 3.576-3.396 7.68-3.396 12.12 0 13.242 10.745 24.006 24 24.006z" fill="#1A344B"/><path d="M66.486 94.006l46.758-46.758L118.001 52l18-24-12-12-24 18 4.758 4.758-46.758 46.764-13.758-13.758-8.483 8.484 7.758 7.758-25.759 25.758a5.993 5.993 0 0 0 0 8.484l12 12a5.993 5.993 0 0 0 8.484 0l25.758-25.758 7.758 7.752 8.484-8.484-13.757-13.752z" fill="#0085FF"/></svg>