<svg width="152" height="152" viewBox="0 0 152 152" fill="none" xmlns="http://www.w3.org/2000/svg"><path d="M136 16a5.986 5.986 0 0 0-5.82-1.542c-15.846 4.32-19.356 4.896-28.704 9.312l26.748 26.754c4.398-9.312 4.98-12.798 9.318-28.698A6.007 6.007 0 0 0 136 16zM77.866 40.192l-43.62 43.626 33.942 33.936 43.626-43.614c3.894-3.9 7.236-8.25 10.272-12.786L90.652 29.92c-4.542 3.042-8.892 6.378-12.786 10.272z" fill="#0085FF"/><path d="M25.756 100.786c-7.026 7.032-8.484 33.942-8.484 33.942s26.91-1.458 33.942-8.49c3.276-3.27 4.962-7.5 5.184-11.784L37.54 95.608c-4.284.222-8.508 1.902-11.784 5.178z" fill="#1A344B"/><path d="M53.392 58.366H25.756l-8.484 8.484L31.09 80.662l22.302-22.296zm31.758 76.362l8.49-8.484V98.728L71.398 120.97l13.752 13.758z" fill="#0085FF"/></svg>