<svg width="152" height="152" viewBox="0 0 152 152" fill="none" xmlns="http://www.w3.org/2000/svg"><g clip-path="url(#clip0)"><mask id="a" maskUnits="userSpaceOnUse" x="0" y="78" width="72" height="72"><circle cx="36" cy="114" r="36" fill="#000"/></mask><g mask="url(#a)"><path d="M36 150c19.882 0 36-16.118 36-36S55.882 78 36 78 0 94.118 0 114s16.118 36 36 36z" fill="#1E96C8"/><path d="M29.4 130.5c-1.166 0-.968-.44-1.37-1.551l-3.43-11.287L51 102" fill="#C8DAEA"/><path d="M29.4 130.5c.9 0 1.298-.412 1.8-.9l4.8-4.667-5.987-3.611" fill="#A9C9DD"/><path d="M30.012 121.323l14.508 10.719c1.655.913 2.85.44 3.263-1.537l5.905-27.829c.605-2.424-.924-3.524-2.508-2.805l-34.677 13.372c-2.367.949-2.353 2.27-.431 2.858l8.899 2.777 20.602-12.997c.972-.59 1.865-.273 1.132.377" fill="url(#paint0_linear)"/></g><mask id="b" maskUnits="userSpaceOnUse" x="80" y="78" width="72" height="72"><circle cx="116" cy="114" r="36" fill="#000"/></mask><g mask="url(#b)"><circle cx="116" cy="114" r="36" fill="#4A154B"/><path d="M102.085 120.332a5.056 5.056 0 0 1-5.043 5.043A5.055 5.055 0 0 1 92 120.332a5.054 5.054 0 0 1 5.042-5.042h5.043v5.042zm2.54 0a5.055 5.055 0 0 1 5.043-5.042 5.054 5.054 0 0 1 5.042 5.042v12.626a5.054 5.054 0 0 1-5.042 5.042 5.055 5.055 0 0 1-5.043-5.042v-12.626z" fill="#E01E5A"/><path d="M109.668 100.085a5.056 5.056 0 0 1-5.043-5.043A5.055 5.055 0 0 1 109.668 90a5.054 5.054 0 0 1 5.042 5.042v5.043h-5.042zm0 2.54a5.055 5.055 0 0 1 5.042 5.043 5.054 5.054 0 0 1-5.042 5.042H97.042A5.054 5.054 0 0 1 92 107.668a5.055 5.055 0 0 1 5.042-5.043h12.626z" fill="#36C5F0"/><path d="M129.915 107.668a5.055 5.055 0 0 1 5.043-5.043 5.055 5.055 0 0 1 5.042 5.043 5.054 5.054 0 0 1-5.042 5.042h-5.043v-5.042zm-2.54 0a5.055 5.055 0 0 1-5.043 5.042 5.054 5.054 0 0 1-5.042-5.042V95.042A5.054 5.054 0 0 1 122.332 90a5.055 5.055 0 0 1 5.043 5.042v12.626z" fill="#2EB67D"/><path d="M122.332 127.915a5.055 5.055 0 0 1 5.043 5.043 5.055 5.055 0 0 1-5.043 5.042 5.054 5.054 0 0 1-5.042-5.042v-5.043h5.042zm0-2.54a5.055 5.055 0 0 1-5.042-5.043 5.054 5.054 0 0 1 5.042-5.042h12.626a5.054 5.054 0 0 1 5.042 5.042 5.055 5.055 0 0 1-5.042 5.043h-12.626z" fill="#ECB22E"/></g><mask id="c" maskUnits="userSpaceOnUse" x="40" y="2" width="72" height="72"><circle cx="76" cy="38" r="36" fill="#007FD2"/></mask><g mask="url(#c)" fill="#007FD2"><path d="M70.576 73.733C55.006 71.2 43.08 59.506 40.433 44.195c-.477-2.859-.586-8.337-.195-11.066 1.149-8.121 4.662-15.072 10.56-20.833C61.88 1.425 78.623-1.109 92.545 5.994c3.145 1.603 5.66 3.422 8.48 6.129 5.334 5.11 8.587 10.871 10.257 18.082.499 2.23.607 3.205.694 6.93.065 3.725.022 4.721-.368 7.017-2.494 14.596-13.62 26.117-28.323 29.257-2.819.606-9.867.8-12.708.324zm20.299-13.73c1.756-.822 3.47-3.204 4.662-6.474.369-1.04 1.214-3.92 1.865-6.41 1.193-4.57 1.215-5.111.39-5.111-.412 0-.585.39-2.125 4.72-2.819 7.862-3.556 9.118-5.486 9.14-1.822.021-3.644-4.072-5.812-13.08-.412-1.711-.76-3.27-.76-3.466 0-.303.89-.346 8.892-.346h8.913l.521-.541c1.106-1.083.477-2.62-1.193-2.924-.542-.108-3.86-.303-7.374-.433-3.513-.13-7.46-.303-8.739-.39l-2.364-.152-1.15-4.006c-1.582-5.522-2.515-8.077-4.141-11.412-2.71-5.544-5.183-7.038-8.263-4.981-1.496 1.018-2.949 2.945-4.424 5.89-1.279 2.642-3.404 8.662-4.337 12.43l-.52 2.036-3.86-.151c-3.362-.13-3.969-.087-4.62.216a2.287 2.287 0 0 0-.498 3.855c.65.563.715.563 4.25.563h3.578l-.086.606c-.065.325-.477 2.556-.933 4.96-.759 4.07-.802 4.417-.477 4.894.499.758 1.388.93 2.082.411.455-.325.846-1.32 2.169-5.63l1.626-5.241h15.874l1.063 3.855c2.06 7.6 4.337 13.534 5.942 15.527 1.605 1.97 3.426 2.534 5.335 1.646z"/><path d="M67.952 34.493l-4.25-.065.52-2.014c2.169-8.034 5.292-14.66 6.897-14.66.997 0 2.667 4.07 5.01 12.191.65 2.318 1.192 4.31 1.192 4.44 0 .195-.737.238-2.537.217a417.75 417.75 0 0 0-6.832-.109z"/></g></g><defs><linearGradient id="paint0_linear" x1="40.501" y1="114" x2="46.135" y2="126.82" gradientUnits="userSpaceOnUse"><stop stop-color="#EFF7FC"/><stop offset="1" stop-color="#fff"/></linearGradient><clipPath id="clip0"><path fill="#fff" d="M0 0h152v152H0z"/></clipPath></defs></svg>